<svg width="843" height="587" xmlns="http://www.w3.org/2000/svg" xmlns:xlink="http://www.w3.org/1999/xlink" xml:space="preserve" overflow="hidden"><g transform="translate(-363 -1126)"><g><g><g><path d="M784.245 1207.23C757.861 1207.2 733.196 1220.32 718.469 1242.21 703.665 1264.05 700.538 1291.78 710.105 1316.37L746.224 1396.23 777.401 1461.63C779.345 1465.41 783.984 1466.9 787.764 1464.96 789.192 1464.22 790.355 1463.06 791.089 1461.63L822.266 1396.23 858.386 1316.37C867.948 1291.78 864.821 1264.07 850.021 1242.23 835.299 1220.33 810.633 1207.2 784.245 1207.23ZM851.367 1313.45 815.403 1392.97 784.295 1458.24 784.192 1458.24 753.148 1393.11 717.119 1313.45C708.534 1291.22 711.395 1266.18 724.777 1246.46 746.921 1213.62 791.498 1204.94 824.341 1227.09 832 1232.25 838.59 1238.85 843.748 1246.51 857.103 1266.23 859.95 1291.24 851.367 1313.45Z" fill="#9C0D0F"/><path d="M784.245 1252.85C765.347 1252.85 750.026 1268.17 750.026 1287.07 750.026 1305.97 765.347 1321.29 784.245 1321.29 803.144 1321.29 818.464 1305.97 818.464 1287.07 818.54 1268.25 803.342 1252.93 784.519 1252.85 784.428 1252.85 784.336 1252.85 784.245 1252.85ZM784.245 1313.71C769.546 1313.71 757.631 1301.79 757.631 1287.09 757.631 1272.39 769.546 1260.48 784.245 1260.48 798.944 1260.48 810.86 1272.39 810.86 1287.09 811.02 1301.64 799.36 1313.56 784.815 1313.72 784.625 1313.72 784.435 1313.72 784.245 1313.72Z" fill="#9C0D0F"/></g></g></g><text fill="#9C0D0F" font-family="Source Sans Pro,Source Sans Pro_MSFontService,sans-serif" font-weight="400" font-size="110" transform="matrix(1 0 0 1 432.274 1611)">Branch Locator</text><path d="M402 1227.17C402 1174.06 445.056 1131 498.169 1131L1070.83 1131C1123.94 1131 1167 1174.06 1167 1227.17L1167 1611.83C1167 1664.94 1123.94 1708 1070.83 1708L498.169 1708C445.056 1708 402 1664.94 402 1611.83Z" stroke="#9C0D0F" stroke-width="10.3125" stroke-miterlimit="8" fill="none" fill-rule="evenodd"/></g></svg>