<svg width="497" height="497" xmlns="http://www.w3.org/2000/svg" xmlns:xlink="http://www.w3.org/1999/xlink" xml:space="preserve" overflow="hidden"><g transform="translate(-1904 -1249)"><path d="M1906.5 1333.5C1906.5 1288.21 1943.21 1251.5 1988.5 1251.5L2316.5 1251.5C2361.79 1251.5 2398.5 1288.21 2398.5 1333.5L2398.5 1661.5C2398.5 1706.79 2361.79 1743.5 2316.5 1743.5L1988.5 1743.5C1943.21 1743.5 1906.5 1706.79 1906.5 1661.5Z" stroke="#9C0D0F" stroke-width="4.58333" stroke-miterlimit="8" fill="#9C0D0F" fill-rule="evenodd"/><g><g><g><path d="M182.245 53.2291C155.861 53.1995 131.196 66.3163 116.469 88.2083 101.665 110.052 98.5378 137.775 108.105 162.368L144.224 242.234 175.401 307.63C177.345 311.41 181.984 312.898 185.764 310.955 187.192 310.221 188.355 309.058 189.089 307.63L220.266 242.234 256.386 162.368C265.948 137.781 262.821 110.066 248.021 88.2273 233.299 66.328 208.633 53.204 182.245 53.2291ZM249.367 159.452 213.403 238.972 182.295 304.239 182.192 304.239 151.148 239.113 115.119 159.452C106.534 137.216 109.395 112.184 122.777 92.459 144.921 59.6159 189.498 50.9433 222.341 73.0878 230 78.2525 236.59 84.848 241.748 92.5122 255.103 112.229 257.949 137.238 249.367 159.452Z" fill="#FFFFFF" transform="matrix(1.00274 0 0 1 1969 1314)"/><path d="M182.245 98.8541C163.346 98.8541 148.026 114.174 148.026 133.073 148.026 151.971 163.346 167.292 182.245 167.292 201.144 167.292 216.464 151.971 216.464 133.073 216.539 114.25 201.342 98.9297 182.519 98.8541 182.428 98.8537 182.336 98.8537 182.245 98.8541ZM182.245 159.706C167.546 159.706 155.631 147.791 155.631 133.092 155.631 118.393 167.546 106.477 182.245 106.477 196.944 106.477 208.86 118.393 208.86 133.092 209.02 147.636 197.36 159.557 182.815 159.718 182.625 159.72 182.435 159.72 182.245 159.718Z" fill="#FFFFFF" transform="matrix(1.00274 0 0 1 1969 1314)"/></g></g></g></g></svg>