<svg width="801" height="587" xmlns="http://www.w3.org/2000/svg" xmlns:xlink="http://www.w3.org/1999/xlink" xml:space="preserve" overflow="hidden"><defs><clipPath id="clip0"><rect x="654" y="1212" width="261" height="259"/></clipPath><clipPath id="clip1"><rect x="654" y="1212" width="261" height="259"/></clipPath><clipPath id="clip2"><rect x="654" y="1212" width="261" height="259"/></clipPath></defs><g transform="translate(-384 -1126)"><text fill="#9C0D0F" font-family="Source Sans Pro,Source Sans Pro_MSFontService,sans-serif" font-weight="400" font-size="110" transform="matrix(1 0 0 1 450.608 1601)">Client Support</text><path d="M402 1227.17C402 1174.06 445.056 1131 498.169 1131L1070.83 1131C1123.94 1131 1167 1174.06 1167 1227.17L1167 1611.83C1167 1664.94 1123.94 1708 1070.83 1708L498.169 1708C445.056 1708 402 1664.94 402 1611.83Z" stroke="#9C0D0F" stroke-width="10.3125" stroke-miterlimit="8" fill="none" fill-rule="evenodd"/><g clip-path="url(#clip0)"><g clip-path="url(#clip1)"><g clip-path="url(#clip2)"><path d="M894.792 1451.69 891.245 1422.32C891.239 1422.27 891.232 1422.22 891.224 1422.18 889.228 1409.88 879.755 1400.15 867.52 1397.82L831.341 1391.02 831.339 1391.02 821.54 1389.17C831.036 1387.33 840.384 1384.79 849.51 1381.58 857.913 1378.62 863.052 1370.13 861.788 1361.31L856.142 1322.61 859.292 1322.61C863.495 1322.61 866.902 1319.2 866.906 1315L866.906 1299.54C866.902 1295.33 863.495 1291.93 859.292 1291.92L853.029 1291.92C852.54 1290.75 851.92 1289.64 851.183 1288.62L848.034 1267.03C843.42 1235.43 816.318 1212 784.382 1212L781.528 1212C749.12 1212.04 721.788 1236.15 717.703 1268.3L714.74 1291.92 708.545 1291.92C704.341 1291.93 700.934 1295.33 700.93 1299.54L700.93 1315C700.934 1319.2 704.341 1322.61 708.545 1322.61L710.89 1322.61 705.999 1361.61C704.947 1370.27 710.028 1378.52 718.244 1381.48 727.654 1384.8 737.301 1387.42 747.104 1389.29L738.756 1390.93 738.7 1390.94 702.931 1397.98C691.567 1400.23 682.562 1408.9 679.889 1420.18 679.873 1420.24 679.859 1420.31 679.847 1420.38L674.436 1450.53C672.374 1459.54 678.005 1468.52 687.014 1470.58 688.239 1470.86 689.492 1471 690.749 1471L878.251 1471C887.495 1471 894.99 1463.51 894.99 1454.26 894.99 1453.4 894.924 1452.54 894.792 1451.69ZM854.326 1299.52 859.319 1299.54 859.292 1315.02 854.326 1315.02ZM849.28 1328.14 854.279 1362.41C855.026 1367.64 851.976 1372.67 846.992 1374.42 836.477 1378.12 825.658 1380.89 814.659 1382.7L814.659 1368.07 817.404 1366.35C821.402 1363.86 824.777 1360.49 827.269 1356.49L827.888 1356.49C837.009 1356.48 844.402 1349.09 844.413 1339.97L844.413 1331.49C846.219 1330.66 847.867 1329.53 849.28 1328.14ZM798.648 1369.14C789.625 1374.73 778.212 1374.73 769.189 1369.14L761.323 1364.22C761.311 1364.21 761.297 1364.2 761.283 1364.19L754.454 1359.92C747.637 1355.69 743.501 1348.22 743.527 1340.2L743.527 1288.86C751.077 1287.82 757.766 1283.46 761.753 1276.96 764.164 1279.35 766.779 1281.52 769.566 1283.45L770.303 1283.95C787.567 1295.65 806.204 1292.92 824.309 1289.82L824.309 1340.2C824.312 1343.18 823.745 1346.14 822.636 1348.9L797.198 1348.9C795.614 1344.42 791.379 1341.42 786.626 1341.42L780.182 1341.42C773.994 1341.42 768.98 1346.44 768.973 1352.63L768.973 1352.77C768.98 1358.96 773.994 1363.97 780.182 1363.98L786.626 1363.98C791.379 1363.97 795.614 1360.97 797.198 1356.49L817.65 1356.49C816.366 1357.8 814.932 1358.95 813.38 1359.92ZM807.071 1372.82 807.071 1390.09C807.068 1390.97 806.664 1391.79 805.975 1392.33L784.547 1409.01 764.04 1392.38C763.462 1391.91 763.091 1391.23 763.008 1390.5 763.006 1390.47 763.006 1390.44 763.004 1390.41 762.998 1390.34 762.991 1390.26 762.991 1390.18L762.991 1374.21 765.166 1375.57C776.654 1382.69 791.184 1382.69 802.672 1375.57ZM790.247 1352.63 790.247 1352.77C790.245 1354.77 788.625 1356.39 786.626 1356.39L780.182 1356.39C778.183 1356.39 776.562 1354.77 776.56 1352.77L776.56 1352.63C776.562 1350.63 778.183 1349.01 780.182 1349L786.626 1349C788.625 1349.01 790.245 1350.63 790.247 1352.63ZM830.797 1348.41C831.528 1345.73 831.897 1342.97 831.896 1340.2L831.896 1333 836.826 1333 836.826 1339.97C836.818 1343.78 834.399 1347.17 830.797 1348.41ZM846.738 1298.41 846.738 1316.13C846.733 1321.25 842.578 1325.41 837.45 1325.42L831.896 1325.42 831.896 1289.12 837.45 1289.12C842.578 1289.12 846.733 1293.28 846.738 1298.41ZM725.231 1269.25C728.835 1240.89 752.943 1219.62 781.529 1219.59L784.383 1219.59C812.55 1219.58 836.455 1240.25 840.526 1268.12L842.6 1282.34C840.936 1281.8 839.198 1281.53 837.45 1281.53L828.294 1281.53C828.276 1281.53 828.257 1281.53 828.239 1281.53L828.103 1281.53 828.088 1281.53C827.969 1281.53 827.852 1281.54 827.734 1281.55L827.683 1281.55C827.61 1281.56 827.538 1281.57 827.466 1281.58L824.869 1282.02C806.877 1285.12 789.882 1288.05 774.561 1277.67L773.87 1277.2C770.052 1274.55 766.616 1271.4 763.658 1267.81 762.324 1266.2 759.933 1265.97 758.317 1267.3 757.76 1267.76 757.346 1268.37 757.123 1269.06 754.698 1276.57 747.664 1281.62 739.772 1281.53L739.756 1281.53 739.733 1281.53 730.387 1281.53C728.014 1281.53 725.668 1282.03 723.505 1283.01ZM721.098 1298.41C721.104 1293.28 725.259 1289.12 730.386 1289.12L735.939 1289.12 735.939 1325.42 730.386 1325.42C725.258 1325.41 721.103 1321.25 721.097 1316.13ZM708.517 1315 708.545 1299.51 713.51 1299.51 713.51 1315.01ZM720.775 1374.32C715.909 1372.57 712.902 1367.68 713.527 1362.55L717.926 1327.48C721.115 1331 725.64 1333 730.386 1333L735.939 1333 735.939 1340.2C735.905 1350.84 741.39 1360.74 750.431 1366.35L755.403 1369.46 755.403 1383.02C743.614 1381.21 732.02 1378.3 720.775 1374.32ZM756.658 1395.14C757.312 1396.35 758.196 1397.41 759.261 1398.27L780.239 1415.28C782.701 1417.3 786.231 1417.33 788.732 1415.37L810.634 1398.32C811.684 1397.5 812.566 1396.48 813.233 1395.33L826.373 1397.8C825.884 1399.29 824.968 1400.6 823.739 1401.56L784.706 1431.94C784.377 1432.2 783.914 1432.2 783.59 1431.93L746.197 1401.61C744.957 1400.6 744.055 1399.24 743.611 1397.71ZM885.217 1460.2C883.478 1462.24 880.932 1463.41 878.251 1463.41L690.749 1463.41C685.698 1463.41 681.602 1459.32 681.602 1454.27 681.602 1453.56 681.684 1452.86 681.846 1452.17 681.861 1452.1 681.875 1452.03 681.887 1451.97L687.296 1421.82C689.311 1413.49 695.986 1407.09 704.396 1405.42L736.141 1399.18C736.94 1402.46 738.794 1405.38 741.42 1407.5L778.812 1437.83C781.875 1440.33 786.26 1440.37 789.37 1437.93L828.404 1407.55C831.102 1405.46 833.028 1402.52 833.877 1399.21L866.115 1405.28C875.183 1407 882.211 1414.2 883.721 1423.31L887.267 1452.67C887.273 1452.72 887.28 1452.77 887.288 1452.82 887.713 1455.46 886.955 1458.16 885.216 1460.2Z" fill="#9C0D0F"/></g></g></g></g></svg>