<svg width="498" height="497" xmlns="http://www.w3.org/2000/svg" xmlns:xlink="http://www.w3.org/1999/xlink" xml:space="preserve" overflow="hidden"><g transform="translate(-2521 -683)"><g><g><g><path d="M239.792 239.695 236.245 210.322C236.239 210.272 236.232 210.224 236.224 210.175 234.228 197.882 224.755 188.15 212.52 185.822L176.341 179.016 176.338 179.016 166.54 177.173C176.036 175.327 185.384 172.79 194.51 169.583 202.913 166.618 208.052 158.133 206.788 149.313L201.142 110.612 204.292 110.612C208.495 110.607 211.902 107.2 211.906 102.996L211.906 87.5359C211.902 83.3322 208.495 79.9252 204.292 79.9207L198.029 79.9207C197.54 78.7532 196.92 77.6448 196.183 76.6159L193.034 55.0258C188.42 23.4252 161.318-0.00384354 129.382 2.16126e-07L126.528 0C94.1196 0.0427789 66.7881 24.1534 62.7028 56.3031L59.7399 79.9207 53.5452 79.9207C49.3413 79.9252 45.9344 83.3322 45.93 87.5359L45.93 102.996C45.9344 107.2 49.3413 110.607 53.5452 110.612L55.8903 110.612 50.9987 149.606C49.9472 158.275 55.0279 166.519 63.2445 169.476 72.654 172.803 82.3012 175.415 92.1038 177.288L83.7561 178.93 83.7 178.941 47.9312 185.975C36.5668 188.227 27.5618 196.903 24.8893 208.176 24.8731 208.242 24.8591 208.309 24.8473 208.377L19.4361 238.532C17.3737 247.541 23.0049 256.516 32.0137 258.578 33.239 258.858 34.4921 259 35.7491 259L223.251 259C232.495 259 239.99 251.506 239.99 242.261 239.99 241.402 239.924 240.544 239.792 239.695ZM199.326 87.5202 204.319 87.5354 204.292 103.024 199.326 103.024ZM194.28 116.135 199.279 150.409C200.026 155.64 196.975 160.67 191.992 162.425 181.476 166.122 170.658 168.89 159.659 170.7L159.659 156.071 162.404 154.354C166.402 151.863 169.777 148.489 172.269 144.491L172.888 144.491C182.009 144.481 189.402 137.091 189.413 127.97L189.413 119.487C191.219 118.663 192.867 117.529 194.28 116.135ZM143.648 157.138C134.625 162.732 123.212 162.732 114.189 157.138L106.323 152.217C106.311 152.208 106.297 152.201 106.284 152.192L99.4544 147.92C92.637 143.688 88.5011 136.225 88.5269 128.201L88.5269 76.8602C96.0773 75.8242 102.766 71.4582 106.753 64.9629 109.164 67.347 111.779 69.5167 114.566 71.448L115.303 71.9493C132.567 83.6504 151.204 80.9233 169.309 77.8204L169.309 128.202C169.312 131.183 168.744 134.137 167.636 136.903L142.197 136.903C140.614 132.421 136.379 129.422 131.626 129.416L125.182 129.416C118.994 129.423 113.98 134.438 113.973 140.626L113.973 140.768C113.98 146.956 118.994 151.971 125.182 151.978L131.626 151.978C136.379 151.972 140.614 148.973 142.197 144.491L162.65 144.491C161.366 145.797 159.932 146.948 158.38 147.921ZM152.071 160.819 152.071 178.093C152.068 178.967 151.664 179.791 150.975 180.329L129.547 197.007 109.04 180.377C108.462 179.91 108.091 179.234 108.008 178.496 108.006 178.468 108.006 178.44 108.004 178.413 107.998 178.336 107.991 178.258 107.991 178.179L107.991 162.211 110.166 163.572C121.654 170.694 136.184 170.694 147.672 163.571ZM135.247 140.626 135.247 140.767C135.245 142.767 133.625 144.387 131.626 144.389L125.182 144.389C123.183 144.387 121.562 142.767 121.56 140.767L121.56 140.626C121.562 138.626 123.183 137.006 125.182 137.003L131.626 137.003C133.625 137.006 135.245 138.626 135.247 140.626ZM175.797 136.407C176.528 133.733 176.897 130.973 176.896 128.202L176.896 121.004 181.825 121.004 181.825 127.97C181.818 131.78 179.399 135.167 175.797 136.407ZM191.738 86.4058 191.738 104.127C191.733 109.254 187.578 113.41 182.45 113.416L176.896 113.416 176.896 77.1167 182.45 77.1167C187.578 77.1228 191.733 81.2779 191.738 86.4058ZM70.2309 57.2476C73.8352 28.8904 97.9434 7.62466 126.529 7.58789L129.383 7.58789C157.55 7.58384 181.455 28.2482 185.526 56.1205L187.6 70.3367C185.936 69.801 184.198 69.5288 182.45 69.5288L173.294 69.5288C173.275 69.5283 173.257 69.5298 173.239 69.5288L173.103 69.5288 173.088 69.5298C172.969 69.5303 172.852 69.5364 172.734 69.548L172.683 69.5536C172.61 69.5617 172.538 69.5662 172.466 69.5789L169.868 70.0246C151.877 73.124 134.882 76.0514 119.561 65.6681L118.87 65.1976C115.052 62.5525 111.616 59.3949 108.658 55.814 107.324 54.1982 104.933 53.9696 103.317 55.303 102.76 55.7629 102.346 56.3719 102.123 57.0584 99.6977 64.5689 92.6643 69.6244 84.7724 69.5293L84.7557 69.5298 84.7334 69.5288 75.3867 69.5288C73.0142 69.5293 70.6685 70.0342 68.5055 71.009ZM66.0981 86.4053C66.1041 81.2784 70.2593 77.1233 75.3862 77.1172L80.939 77.1172 80.939 113.416 75.3862 113.416C70.2583 113.41 66.1031 109.254 66.0976 104.127ZM53.5174 102.996 53.5447 87.5086 58.5097 87.5086 58.5097 103.012ZM65.7753 162.324C60.9095 160.57 57.9021 155.685 58.5269 150.55L62.9258 115.483C66.1148 118.998 70.6402 121.004 75.3862 121.004L80.939 121.004 80.939 128.202C80.9051 138.843 86.3901 148.741 95.4308 154.353L100.403 157.464 100.403 171.021C88.6139 169.212 77.0201 166.3 65.7753 162.324ZM101.658 183.143C102.312 184.346 103.196 185.409 104.261 186.27L125.239 203.283C127.701 205.297 131.231 205.331 133.732 203.365L155.634 186.319C156.684 185.499 157.566 184.485 158.233 183.332L171.373 185.803C170.884 187.289 169.968 188.597 168.739 189.565L129.706 219.944C129.377 220.201 128.914 220.196 128.59 219.932L91.1968 189.605C89.9574 188.6 89.055 187.241 88.6108 185.708ZM230.216 248.197C228.478 250.238 225.932 251.414 223.251 251.412L35.7491 251.412C30.6979 251.412 26.6026 247.319 26.602 242.267 26.6019 241.56 26.6838 240.856 26.8459 240.168 26.8615 240.101 26.8751 240.034 26.8869 239.966L32.2966 209.821C34.3115 201.488 40.9859 195.086 49.3956 193.42L81.1413 187.177C81.9401 190.456 83.7945 193.381 86.42 195.501L123.813 225.827C126.875 228.327 131.26 228.369 134.37 225.929L173.404 195.55C176.102 193.456 178.028 190.523 178.877 187.215L211.115 193.279C220.183 195.004 227.211 202.201 228.721 211.307L232.267 240.673C232.273 240.721 232.28 240.769 232.287 240.817 232.712 243.462 231.955 246.16 230.216 248.197Z" fill="#9C0D0F" transform="matrix(1 0 0 1.00386 2640 797)"/></g></g></g><path d="M2523.5 767.502C2523.5 722.213 2560.21 685.5 2605.5 685.5L2934.5 685.5C2979.79 685.5 3016.5 722.213 3016.5 767.502L3016.5 1095.5C3016.5 1140.79 2979.79 1177.5 2934.5 1177.5L2605.5 1177.5C2560.21 1177.5 2523.5 1140.79 2523.5 1095.5Z" stroke="#9C0D0F" stroke-width="4.58333" stroke-miterlimit="8" fill="none" fill-rule="evenodd"/></g></svg>