<svg width="496" height="497" xmlns="http://www.w3.org/2000/svg" xmlns:xlink="http://www.w3.org/1999/xlink" xml:space="preserve" overflow="hidden"><defs><clipPath id="clip0"><rect x="2649" y="1367" width="261" height="259"/></clipPath><clipPath id="clip1"><rect x="2649" y="1367" width="261" height="259"/></clipPath><clipPath id="clip2"><rect x="2649" y="1367" width="261" height="259"/></clipPath></defs><g transform="translate(-2527 -1249)"><path d="M2529.5 1333.33C2529.5 1288.14 2566.14 1251.5 2611.33 1251.5L2938.67 1251.5C2983.86 1251.5 3020.5 1288.14 3020.5 1333.33L3020.5 1661.67C3020.5 1706.86 2983.86 1743.5 2938.67 1743.5L2611.33 1743.5C2566.14 1743.5 2529.5 1706.86 2529.5 1661.67Z" stroke="#9C0D0F" stroke-width="4.58333" stroke-miterlimit="8" fill="#9C0D0F" fill-rule="evenodd"/><g clip-path="url(#clip0)"><g clip-path="url(#clip1)"><g clip-path="url(#clip2)"><path d="M2889.79 1606.69 2886.25 1577.32C2886.24 1577.27 2886.23 1577.22 2886.22 1577.18 2884.23 1564.88 2874.76 1555.15 2862.52 1552.82L2826.34 1546.02 2826.34 1546.02 2816.54 1544.17C2826.04 1542.33 2835.38 1539.79 2844.51 1536.58 2852.91 1533.62 2858.05 1525.13 2856.79 1516.31L2851.14 1477.61 2854.29 1477.61C2858.5 1477.61 2861.9 1474.2 2861.91 1470L2861.91 1454.54C2861.9 1450.33 2858.5 1446.93 2854.29 1446.92L2848.03 1446.92C2847.54 1445.75 2846.92 1444.64 2846.18 1443.62L2843.03 1422.03C2838.42 1390.43 2811.32 1367 2779.38 1367L2776.53 1367C2744.12 1367.04 2716.79 1391.15 2712.7 1423.3L2709.74 1446.92 2703.55 1446.92C2699.34 1446.93 2695.93 1450.33 2695.93 1454.54L2695.93 1470C2695.93 1474.2 2699.34 1477.61 2703.55 1477.61L2705.89 1477.61 2701 1516.61C2699.95 1525.27 2705.03 1533.52 2713.24 1536.48 2722.65 1539.8 2732.3 1542.42 2742.1 1544.29L2733.76 1545.93 2733.7 1545.94 2697.93 1552.98C2686.57 1555.23 2677.56 1563.9 2674.89 1575.18 2674.87 1575.24 2674.86 1575.31 2674.85 1575.38L2669.44 1605.53C2667.37 1614.54 2673 1623.52 2682.01 1625.58 2683.24 1625.86 2684.49 1626 2685.75 1626L2873.25 1626C2882.5 1626 2889.99 1618.51 2889.99 1609.26 2889.99 1608.4 2889.92 1607.54 2889.79 1606.69ZM2849.33 1454.52 2854.32 1454.54 2854.29 1470.02 2849.33 1470.02ZM2844.28 1483.14 2849.28 1517.41C2850.03 1522.64 2846.98 1527.67 2841.99 1529.42 2831.48 1533.12 2820.66 1535.89 2809.66 1537.7L2809.66 1523.07 2812.4 1521.35C2816.4 1518.86 2819.78 1515.49 2822.27 1511.49L2822.89 1511.49C2832.01 1511.48 2839.4 1504.09 2839.41 1494.97L2839.41 1486.49C2841.22 1485.66 2842.87 1484.53 2844.28 1483.14ZM2793.65 1524.14C2784.63 1529.73 2773.21 1529.73 2764.19 1524.14L2756.32 1519.22C2756.31 1519.21 2756.3 1519.2 2756.28 1519.19L2749.45 1514.92C2742.64 1510.69 2738.5 1503.22 2738.53 1495.2L2738.53 1443.86C2746.08 1442.82 2752.77 1438.46 2756.75 1431.96 2759.16 1434.35 2761.78 1436.52 2764.57 1438.45L2765.3 1438.95C2782.57 1450.65 2801.2 1447.92 2819.31 1444.82L2819.31 1495.2C2819.31 1498.18 2818.74 1501.14 2817.64 1503.9L2792.2 1503.9C2790.61 1499.42 2786.38 1496.42 2781.63 1496.42L2775.18 1496.42C2768.99 1496.42 2763.98 1501.44 2763.97 1507.63L2763.97 1507.77C2763.98 1513.96 2768.99 1518.97 2775.18 1518.98L2781.63 1518.98C2786.38 1518.97 2790.61 1515.97 2792.2 1511.49L2812.65 1511.49C2811.37 1512.8 2809.93 1513.95 2808.38 1514.92ZM2802.07 1527.82 2802.07 1545.09C2802.07 1545.97 2801.66 1546.79 2800.98 1547.33L2779.55 1564.01 2759.04 1547.38C2758.46 1546.91 2758.09 1546.23 2758.01 1545.5 2758.01 1545.47 2758.01 1545.44 2758 1545.41 2758 1545.34 2757.99 1545.26 2757.99 1545.18L2757.99 1529.21 2760.17 1530.57C2771.65 1537.69 2786.18 1537.69 2797.67 1530.57ZM2785.25 1507.63 2785.25 1507.77C2785.25 1509.77 2783.63 1511.39 2781.63 1511.39L2775.18 1511.39C2773.18 1511.39 2771.56 1509.77 2771.56 1507.77L2771.56 1507.63C2771.56 1505.63 2773.18 1504.01 2775.18 1504L2781.63 1504C2783.63 1504.01 2785.25 1505.63 2785.25 1507.63ZM2825.8 1503.41C2826.53 1500.73 2826.9 1497.97 2826.9 1495.2L2826.9 1488 2831.83 1488 2831.83 1494.97C2831.82 1498.78 2829.4 1502.17 2825.8 1503.41ZM2841.74 1453.41 2841.74 1471.13C2841.73 1476.25 2837.58 1480.41 2832.45 1480.42L2826.9 1480.42 2826.9 1444.12 2832.45 1444.12C2837.58 1444.12 2841.73 1448.28 2841.74 1453.41ZM2720.23 1424.25C2723.84 1395.89 2747.94 1374.62 2776.53 1374.59L2779.38 1374.59C2807.55 1374.58 2831.46 1395.25 2835.53 1423.12L2837.6 1437.34C2835.94 1436.8 2834.2 1436.53 2832.45 1436.53L2823.29 1436.53C2823.28 1436.53 2823.26 1436.53 2823.24 1436.53L2823.1 1436.53 2823.09 1436.53C2822.97 1436.53 2822.85 1436.54 2822.73 1436.55L2822.68 1436.55C2822.61 1436.56 2822.54 1436.57 2822.47 1436.58L2819.87 1437.02C2801.88 1440.12 2784.88 1443.05 2769.56 1432.67L2768.87 1432.2C2765.05 1429.55 2761.62 1426.4 2758.66 1422.81 2757.32 1421.2 2754.93 1420.97 2753.32 1422.3 2752.76 1422.76 2752.35 1423.37 2752.12 1424.06 2749.7 1431.57 2742.66 1436.62 2734.77 1436.53L2734.76 1436.53 2734.73 1436.53 2725.39 1436.53C2723.01 1436.53 2720.67 1437.03 2718.51 1438.01ZM2716.1 1453.41C2716.1 1448.28 2720.26 1444.12 2725.39 1444.12L2730.94 1444.12 2730.94 1480.42 2725.39 1480.42C2720.26 1480.41 2716.1 1476.25 2716.1 1471.13ZM2703.52 1470 2703.54 1454.51 2708.51 1454.51 2708.51 1470.01ZM2715.78 1529.32C2710.91 1527.57 2707.9 1522.68 2708.53 1517.55L2712.93 1482.48C2716.11 1486 2720.64 1488 2725.39 1488L2730.94 1488 2730.94 1495.2C2730.91 1505.84 2736.39 1515.74 2745.43 1521.35L2750.4 1524.46 2750.4 1538.02C2738.61 1536.21 2727.02 1533.3 2715.78 1529.32ZM2751.66 1550.14C2752.31 1551.35 2753.2 1552.41 2754.26 1553.27L2775.24 1570.28C2777.7 1572.3 2781.23 1572.33 2783.73 1570.37L2805.63 1553.32C2806.68 1552.5 2807.57 1551.48 2808.23 1550.33L2821.37 1552.8C2820.88 1554.29 2819.97 1555.6 2818.74 1556.56L2779.71 1586.94C2779.38 1587.2 2778.91 1587.2 2778.59 1586.93L2741.2 1556.61C2739.96 1555.6 2739.06 1554.24 2738.61 1552.71ZM2880.22 1615.2C2878.48 1617.24 2875.93 1618.41 2873.25 1618.41L2685.75 1618.41C2680.7 1618.41 2676.6 1614.32 2676.6 1609.27 2676.6 1608.56 2676.68 1607.86 2676.85 1607.17 2676.86 1607.1 2676.88 1607.03 2676.89 1606.97L2682.3 1576.82C2684.31 1568.49 2690.99 1562.09 2699.4 1560.42L2731.14 1554.18C2731.94 1557.46 2733.79 1560.38 2736.42 1562.5L2773.81 1592.83C2776.87 1595.33 2781.26 1595.37 2784.37 1592.93L2823.4 1562.55C2826.1 1560.46 2828.03 1557.52 2828.88 1554.21L2861.12 1560.28C2870.18 1562 2877.21 1569.2 2878.72 1578.31L2882.27 1607.67C2882.27 1607.72 2882.28 1607.77 2882.29 1607.82 2882.71 1610.46 2881.96 1613.16 2880.22 1615.2Z" fill="#FFFFFF"/></g></g></g></g></svg>