<svg width="775" height="587" xmlns="http://www.w3.org/2000/svg" xmlns:xlink="http://www.w3.org/1999/xlink" xml:space="preserve" overflow="hidden"><g transform="translate(-1375 -450)"><g><g><g><path d="M1627.27 748.181C1627.79 748.18 1628.3 748.062 1628.76 747.837L1698.4 714.359C1701.52 712.515 1705.07 711.526 1708.69 711.493L1769.95 711.493C1773.69 711.408 1776.79 714.373 1776.87 718.114 1776.96 721.855 1773.99 724.956 1770.25 725.04 1770.15 725.042 1770.05 725.042 1769.95 725.04L1724.01 725.04C1722.11 725.04 1720.57 726.579 1720.57 728.477 1720.57 730.376 1722.11 731.915 1724.01 731.915L1769.95 731.915C1777.49 732.034 1783.69 726.021 1783.81 718.483 1783.93 710.945 1777.92 704.737 1770.38 704.618 1770.24 704.615 1770.09 704.615 1769.95 704.618L1708.69 704.618C1703.96 704.651 1699.31 705.911 1695.21 708.275L1625.77 741.646C1624.06 742.474 1623.35 744.53 1624.17 746.239 1624.75 747.421 1625.94 748.174 1627.26 748.178Z" fill="#9C0D0F"/><path d="M1773.31 754.018C1772.12 754.918 1770.68 755.41 1769.19 755.42L1721.45 755.42C1696.08 755.42 1675.25 762.911 1659.54 777.682 1658.16 778.982 1658.09 781.158 1659.39 782.542 1660.69 783.926 1662.86 783.994 1664.25 782.694 1678.64 769.157 1697.88 762.313 1721.45 762.313L1769.19 762.313C1772.12 762.303 1774.98 761.355 1777.34 759.607L1847.53 708.275 1847.93 707.931C1850.77 705.232 1852.42 701.509 1852.51 697.588 1852.5 690.054 1846.4 683.947 1838.86 683.938 1836.36 683.886 1833.9 684.577 1831.79 685.924L1788.14 710.943C1786.49 711.887 1785.92 713.989 1786.86 715.637 1787.81 717.284 1789.91 717.855 1791.56 716.91L1835.4 691.768C1836.43 691.105 1837.64 690.772 1838.86 690.813 1842.6 690.818 1845.63 693.849 1845.64 697.588 1845.53 699.598 1844.67 701.494 1843.23 702.895Z" fill="#9C0D0F"/><path d="M1730.93 624.428C1736.28 624.251 1741.33 621.926 1744.93 617.979 1751.84 610.76 1752.75 600.448 1747 594.948 1744.58 592.701 1741.39 591.485 1738.09 591.558 1732.75 591.731 1727.7 594.054 1724.09 598 1717.19 605.219 1716.27 615.514 1722.03 621.031 1724.44 623.283 1727.63 624.502 1730.93 624.428ZM1729.06 602.751C1731.38 600.17 1734.63 598.616 1738.09 598.433 1739.62 598.375 1741.1 598.906 1742.25 599.915 1745.2 602.747 1744.16 608.852 1739.97 613.225 1737.65 615.809 1734.4 617.366 1730.94 617.553 1729.41 617.609 1727.93 617.078 1726.79 616.068 1723.82 613.232 1724.87 607.134 1729.06 602.751Z" fill="#9C0D0F"/><path d="M1701.91 570.528C1698.44 570.527 1695.63 573.339 1695.63 576.808 1695.63 580.276 1698.44 583.088 1701.91 583.088 1705.37 583.089 1708.19 580.277 1708.19 576.808 1708.19 575.095 1707.49 573.455 1706.25 572.27 1705.08 571.151 1703.52 570.526 1701.91 570.528Z" fill="#9C0D0F"/><path d="M1826.39 636.304 1807.28 619.313 1827.33 608.344 1847.43 602.373 1923.22 589.888C1925.1 589.579 1926.37 587.81 1926.06 585.936 1925.75 584.062 1923.98 582.794 1922.11 583.102L1846.1 595.625C1845.96 595.648 1845.82 595.68 1845.68 595.721L1825.02 601.857C1824.78 601.924 1824.55 602.018 1824.33 602.135L1770.61 631.55C1767.31 633.337 1763.18 632.106 1761.39 628.801 1761.18 628.406 1761 627.992 1760.87 627.563 1760.05 624.221 1761.68 620.76 1764.78 619.268L1802.09 593.94C1803.65 592.862 1804.05 590.722 1802.97 589.159 1802.26 588.138 1801.07 587.576 1799.83 587.688L1777.66 589.836 1744.53 558.125 1777.93 546.066C1782.6 543.943 1787.82 543.317 1792.87 544.275L1835.28 556.678C1854.47 562.288 1875.33 558.844 1900.96 545.829 1902.65 544.962 1903.31 542.89 1902.45 541.201 1901.58 539.522 1899.53 538.853 1897.84 539.7 1873.88 551.872 1854.62 555.169 1837.22 550.078L1794.76 537.651C1788.35 536.242 1781.65 536.911 1775.64 539.563L1738.98 552.8 1702.14 517.539 1642.72 579.616 1766.88 698.475ZM1761.2 613.417C1755.35 616.503 1752.47 623.283 1754.32 629.635 1756.56 636.843 1764.22 640.874 1771.42 638.638 1772.29 638.37 1773.12 638.016 1773.92 637.583L1789.06 629.299 1793.32 633.375 1793.23 641.117 1770.12 665.258 1762.37 665.602 1675.75 582.686 1675.77 574.907 1698.87 550.789 1706.73 550.487 1767.79 608.942ZM1652.44 579.403 1702.36 527.26 1779.42 601.039 1773.61 604.992 1709.38 543.502 1695.83 544.024 1668.91 572.136 1668.86 585.611 1759.74 672.615 1773.17 672.003 1800.07 643.908 1800.2 631.959 1800.16 630.419 1795.38 625.844 1800.88 622.839 1816.49 636.71 1766.66 688.75Z" fill="#9C0D0F"/></g></g></g><text fill="#9C0D0F" font-family="Source Sans Pro,Source Sans Pro_MSFontService,sans-serif" font-weight="400" font-size="110" transform="matrix(1 0 0 1 1619.85 928)">Loans</text><path d="M1381 551.169C1381 498.056 1424.06 455 1477.17 455L2048.83 455C2101.94 455 2145 498.056 2145 551.169L2145 935.831C2145 988.944 2101.94 1032 2048.83 1032L1477.17 1032C1424.06 1032 1381 988.944 1381 935.831Z" stroke="#9C0D0F" stroke-width="10.3125" stroke-miterlimit="8" fill="none" fill-rule="evenodd"/></g></svg>