<svg width="497" height="497" xmlns="http://www.w3.org/2000/svg" xmlns:xlink="http://www.w3.org/1999/xlink" xml:space="preserve" overflow="hidden"><g transform="translate(-1286 -1249)"><path d="M1288.5 1333.5C1288.5 1288.21 1325.21 1251.5 1370.5 1251.5L1698.5 1251.5C1743.79 1251.5 1780.5 1288.21 1780.5 1333.5L1780.5 1661.5C1780.5 1706.79 1743.79 1743.5 1698.5 1743.5L1370.5 1743.5C1325.21 1743.5 1288.5 1706.79 1288.5 1661.5Z" stroke="#9C0D0F" stroke-width="4.58333" stroke-miterlimit="8" fill="#9C0D0F" fill-rule="evenodd"/><g><g><g><path d="M1394.27 1592.18C1394.79 1592.18 1395.3 1592.06 1395.76 1591.84L1465.4 1558.36C1468.52 1556.51 1472.07 1555.53 1475.69 1555.49L1536.95 1555.49C1540.69 1555.41 1543.79 1558.37 1543.87 1562.11 1543.96 1565.85 1540.99 1568.96 1537.25 1569.04 1537.15 1569.04 1537.05 1569.04 1536.95 1569.04L1491.01 1569.04C1489.11 1569.04 1487.57 1570.58 1487.57 1572.48 1487.57 1574.38 1489.11 1575.91 1491.01 1575.91L1536.95 1575.91C1544.49 1576.03 1550.69 1570.02 1550.81 1562.48 1550.93 1554.94 1544.92 1548.74 1537.38 1548.62 1537.24 1548.62 1537.09 1548.62 1536.95 1548.62L1475.69 1548.62C1470.96 1548.65 1466.31 1549.91 1462.21 1552.28L1392.77 1585.65C1391.06 1586.47 1390.35 1588.53 1391.17 1590.24 1391.75 1591.42 1392.94 1592.17 1394.26 1592.18Z" fill="#FFFFFF"/><path d="M1540.31 1598.02C1539.12 1598.92 1537.68 1599.41 1536.18 1599.42L1488.45 1599.42C1463.08 1599.42 1442.25 1606.91 1426.54 1621.68 1425.16 1622.98 1425.09 1625.16 1426.39 1626.54 1427.69 1627.93 1429.86 1627.99 1431.25 1626.69 1445.64 1613.16 1464.88 1606.31 1488.45 1606.31L1536.18 1606.31C1539.12 1606.3 1541.98 1605.36 1544.34 1603.61L1614.53 1552.28 1614.93 1551.93C1617.77 1549.23 1619.42 1545.51 1619.51 1541.59 1619.5 1534.05 1613.4 1527.95 1605.86 1527.94 1603.36 1527.89 1600.9 1528.58 1598.79 1529.92L1555.14 1554.94C1553.49 1555.89 1552.92 1557.99 1553.86 1559.64 1554.81 1561.28 1556.91 1561.85 1558.56 1560.91L1602.4 1535.77C1603.43 1535.1 1604.64 1534.77 1605.86 1534.81 1609.6 1534.82 1612.63 1537.85 1612.63 1541.59 1612.53 1543.6 1611.67 1545.49 1610.23 1546.9Z" fill="#FFFFFF"/><path d="M1497.93 1468.43C1503.28 1468.25 1508.32 1465.93 1511.93 1461.98 1518.84 1454.76 1519.75 1444.45 1514 1438.95 1511.58 1436.7 1508.39 1435.48 1505.09 1435.56 1499.74 1435.73 1494.7 1438.05 1491.09 1442 1484.19 1449.22 1483.27 1459.51 1489.03 1465.03 1491.44 1467.28 1494.63 1468.5 1497.93 1468.43ZM1496.06 1446.75C1498.38 1444.17 1501.63 1442.62 1505.09 1442.43 1506.62 1442.38 1508.1 1442.91 1509.25 1443.91 1512.2 1446.75 1511.16 1452.85 1506.97 1457.22 1504.65 1459.81 1501.4 1461.37 1497.94 1461.55 1496.41 1461.61 1494.93 1461.08 1493.79 1460.07 1490.82 1457.23 1491.87 1451.13 1496.06 1446.75Z" fill="#FFFFFF"/><path d="M1468.91 1414.53C1465.44 1414.53 1462.63 1417.34 1462.63 1420.81 1462.63 1424.28 1465.44 1427.09 1468.91 1427.09 1472.37 1427.09 1475.19 1424.28 1475.19 1420.81 1475.19 1419.09 1474.49 1417.46 1473.25 1416.27 1472.08 1415.15 1470.52 1414.53 1468.91 1414.53Z" fill="#FFFFFF"/><path d="M1593.38 1480.3 1574.28 1463.31 1594.33 1452.34 1614.43 1446.37 1690.22 1433.89C1692.1 1433.58 1693.37 1431.81 1693.06 1429.94 1692.75 1428.06 1690.98 1426.79 1689.11 1427.1L1613.1 1439.62C1612.96 1439.65 1612.82 1439.68 1612.68 1439.72L1592.02 1445.86C1591.78 1445.92 1591.55 1446.02 1591.33 1446.14L1537.61 1475.55C1534.31 1477.34 1530.18 1476.11 1528.39 1472.8 1528.18 1472.41 1528 1471.99 1527.87 1471.56 1527.05 1468.22 1528.68 1464.76 1531.78 1463.27L1569.09 1437.94C1570.65 1436.86 1571.05 1434.72 1569.97 1433.16 1569.26 1432.14 1568.07 1431.58 1566.83 1431.69L1544.66 1433.84 1511.53 1402.12 1544.93 1390.07C1549.6 1387.94 1554.82 1387.32 1559.87 1388.28L1602.28 1400.68C1621.47 1406.29 1642.33 1402.84 1667.96 1389.83 1669.65 1388.96 1670.31 1386.89 1669.45 1385.2 1668.58 1383.52 1666.53 1382.85 1664.84 1383.7 1640.88 1395.87 1621.62 1399.17 1604.22 1394.08L1561.76 1381.65C1555.35 1380.24 1548.65 1380.91 1542.64 1383.56L1505.98 1396.8 1469.14 1361.54 1409.72 1423.62 1533.87 1542.47ZM1528.2 1457.42C1522.35 1460.5 1519.47 1467.28 1521.32 1473.64 1523.56 1480.84 1531.22 1484.87 1538.42 1482.64 1539.29 1482.37 1540.12 1482.02 1540.92 1481.58L1556.06 1473.3 1560.32 1477.38 1560.23 1485.12 1537.12 1509.26 1529.37 1509.6 1442.75 1426.69 1442.77 1418.91 1465.87 1394.79 1473.73 1394.49 1534.79 1452.94ZM1419.44 1423.4 1469.36 1371.26 1546.42 1445.04 1540.61 1448.99 1476.38 1387.5 1462.83 1388.02 1435.91 1416.14 1435.86 1429.61 1526.74 1516.61 1540.17 1516 1567.07 1487.91 1567.2 1475.96 1567.16 1474.42 1562.38 1469.84 1567.88 1466.84 1583.49 1480.71 1533.65 1532.75Z" fill="#FFFFFF"/></g></g></g></g></svg>