<svg width="498" height="496" xmlns="http://www.w3.org/2000/svg" xmlns:xlink="http://www.w3.org/1999/xlink" xml:space="preserve" overflow="hidden"><g transform="translate(-1285 -682)"><g><g><g><path d="M1403.27 1026.18C1403.79 1026.18 1404.3 1026.06 1404.76 1025.84L1474.4 992.359C1477.52 990.514 1481.07 989.525 1484.69 989.492L1545.95 989.492C1549.69 989.408 1552.79 992.372 1552.87 996.113 1552.96 999.854 1549.99 1002.96 1546.25 1003.04 1546.15 1003.04 1546.05 1003.04 1545.95 1003.04L1500.01 1003.04C1498.11 1003.04 1496.57 1004.58 1496.57 1006.48 1496.57 1008.38 1498.11 1009.91 1500.01 1009.91L1545.95 1009.91C1553.49 1010.03 1559.69 1004.02 1559.81 996.483 1559.93 988.945 1553.92 982.737 1546.38 982.617 1546.24 982.615 1546.09 982.615 1545.95 982.617L1484.69 982.617C1479.96 982.65 1475.31 983.911 1471.21 986.275L1401.77 1019.65C1400.06 1020.47 1399.35 1022.53 1400.17 1024.24 1400.75 1025.42 1401.94 1026.17 1403.26 1026.18Z" fill="#9C0D0F"/><path d="M1549.31 1032.02C1548.12 1032.92 1546.68 1033.41 1545.18 1033.42L1497.45 1033.42C1472.08 1033.42 1451.25 1040.91 1435.54 1055.68 1434.16 1056.98 1434.09 1059.16 1435.39 1060.54 1436.69 1061.93 1438.86 1061.99 1440.25 1060.69 1454.64 1047.16 1473.88 1040.31 1497.45 1040.31L1545.18 1040.31C1548.12 1040.3 1550.98 1039.35 1553.34 1037.61L1623.53 986.275 1623.93 985.931C1626.77 983.232 1628.42 979.508 1628.51 975.588 1628.5 968.053 1622.4 961.947 1614.86 961.937 1612.36 961.886 1609.9 962.577 1607.79 963.924L1564.14 988.942C1562.49 989.887 1561.92 991.988 1562.86 993.636 1563.81 995.284 1565.91 995.854 1567.56 994.91L1611.4 969.768C1612.43 969.105 1613.64 968.771 1614.86 968.812 1618.6 968.818 1621.63 971.849 1621.63 975.588 1621.53 977.598 1620.67 979.494 1619.23 980.895Z" fill="#9C0D0F"/><path d="M1506.93 902.427C1512.28 902.251 1517.32 899.926 1520.93 895.979 1527.84 888.76 1528.75 878.447 1523 872.947 1520.58 870.7 1517.39 869.484 1514.09 869.558 1508.74 869.731 1503.7 872.053 1500.09 876 1493.19 883.219 1492.27 893.514 1498.03 899.031 1500.44 901.283 1503.63 902.502 1506.93 902.427ZM1505.06 880.75C1507.38 878.169 1510.63 876.616 1514.09 876.433 1515.62 876.375 1517.1 876.905 1518.25 877.915 1521.2 880.747 1520.16 886.852 1515.97 891.225 1513.65 893.809 1510.4 895.365 1506.94 895.552 1505.41 895.609 1503.93 895.077 1502.79 894.067 1499.82 891.231 1500.87 885.133 1505.06 880.75Z" fill="#9C0D0F"/><path d="M1477.91 848.527C1474.44 848.527 1471.63 851.339 1471.63 854.807 1471.63 858.276 1474.44 861.088 1477.91 861.088 1481.37 861.088 1484.19 858.277 1484.19 854.808 1484.19 853.094 1483.49 851.455 1482.25 850.27 1481.08 849.15 1479.52 848.526 1477.91 848.527Z" fill="#9C0D0F"/><path d="M1602.38 914.304 1583.28 897.312 1603.33 886.343 1623.43 880.372 1699.22 867.887C1701.1 867.579 1702.37 865.81 1702.06 863.936 1701.75 862.062 1699.98 860.793 1698.11 861.102L1622.1 873.625C1621.96 873.648 1621.82 873.68 1621.68 873.721L1601.02 879.857C1600.78 879.924 1600.55 880.017 1600.33 880.135L1546.61 909.55C1543.31 911.337 1539.18 910.106 1537.39 906.801 1537.18 906.406 1537 905.991 1536.87 905.562 1536.05 902.221 1537.68 898.76 1540.78 897.268L1578.09 871.94C1579.65 870.862 1580.05 868.721 1578.97 867.159 1578.26 866.138 1577.07 865.576 1575.83 865.687L1553.66 867.836 1520.53 836.125 1553.93 824.066C1558.6 821.943 1563.82 821.317 1568.87 822.275L1611.28 834.678C1630.47 840.288 1651.33 836.843 1676.96 823.829 1678.65 822.962 1679.31 820.89 1678.45 819.201 1677.58 817.522 1675.53 816.853 1673.84 817.7 1649.88 829.872 1630.62 833.169 1613.22 828.078L1570.76 815.651C1564.35 814.241 1557.65 814.911 1551.64 817.562L1514.98 830.8 1478.14 795.538 1418.72 857.616 1542.87 976.475ZM1537.2 891.417C1531.35 894.503 1528.47 901.282 1530.32 907.635 1532.56 914.843 1540.22 918.873 1547.42 916.638 1548.29 916.37 1549.12 916.016 1549.92 915.583L1565.06 907.298 1569.32 911.375 1569.23 919.116 1546.12 943.258 1538.37 943.602 1451.75 860.686 1451.77 852.907 1474.87 828.789 1482.73 828.487 1543.79 886.941ZM1428.44 857.403 1478.36 805.26 1555.42 879.039 1549.61 882.992 1485.38 821.502 1471.83 822.024 1444.91 850.136 1444.86 863.611 1535.74 950.614 1549.17 950.002 1576.07 921.908 1576.2 909.959 1576.16 908.419 1571.38 903.844 1576.88 900.839 1592.49 914.71 1542.65 966.75Z" fill="#9C0D0F"/></g></g></g><path d="M1287.5 766.335C1287.5 721.139 1324.14 684.5 1369.33 684.5L1698.67 684.5C1743.86 684.5 1780.5 721.139 1780.5 766.335L1780.5 1093.66C1780.5 1138.86 1743.86 1175.5 1698.67 1175.5L1369.33 1175.5C1324.14 1175.5 1287.5 1138.86 1287.5 1093.66Z" stroke="#9C0D0F" stroke-width="4.58333" stroke-miterlimit="8" fill="none" fill-rule="evenodd"/></g></svg>