<svg width="774" height="587" xmlns="http://www.w3.org/2000/svg" xmlns:xlink="http://www.w3.org/1999/xlink" xml:space="preserve" overflow="hidden"><g transform="translate(-401 -445)"><g><g><g><path d="M663.375 664.812 676.094 667.906C678.156 668.594 679.875 669.969 680.906 672.031 686.75 685.438 695.688 697.469 706.688 707.438 707.719 708.469 708.75 709.844 709.094 711.562L714.25 742.844C714.938 746.281 717.688 748.688 721.125 748.688L743.813 748.688C747.25 748.688 750 746.281 750.688 742.844L752.406 731.844C755.156 732.531 757.906 733.219 760.656 733.562L763.406 733.906C767.875 734.594 772.688 734.938 777.156 734.938 786.438 734.938 796.063 733.562 805 731.156L807.063 742.844C807.75 746.281 810.5 748.688 813.938 748.688L836.625 748.688C840.063 748.688 842.813 746.281 843.5 742.844L848.656 711.562C849 709.844 849.688 708.469 851.063 707.438 852.094 706.406 853.125 705.375 854.156 704.688L857.25 701.938C874.781 684.406 886.813 662.406 886.813 638 886.813 632.156 886.125 626.656 884.75 621.156L883.375 616.688C888.188 614.969 893 613.938 898.156 613.938 895.75 618.062 894.031 622.531 893.688 627 893 632.5 894.719 637.656 897.813 641.781 900.563 644.875 904.688 646.594 908.813 646.25 914.313 645.906 919.469 642.469 921.188 636.969 924.281 629.75 922.563 621.5 917.063 615.656 915.344 613.938 913.625 612.219 911.563 611.188 916.719 609.469 922.563 608.781 928.063 609.469 930.125 609.469 931.5 608.094 931.844 606.375 931.844 604.312 930.469 602.938 928.75 602.594L928.75 602.594C917.063 601.906 909.156 603.969 904 607.75 896.438 606.031 888.531 606.719 881.313 609.812L880.625 607.75C864.469 569.594 819.438 541.75 776.813 541.75 762.031 541.75 747.25 545.188 733.844 551.375L691.563 531.438C691.219 531.094 690.531 531.094 690.188 531.094 688.125 531.094 686.75 532.469 686.75 534.531 686.75 534.875 686.75 535.219 686.75 535.562L700.5 574.406C699.469 575.438 698.438 576.812 697.063 578.188 697.063 578.188 696.719 578.531 696.719 578.531 690.188 586.094 684.688 594.688 680.563 603.969 679.875 606.031 677.813 607.75 675.75 608.094L663.375 611.188C657.188 612.562 652.719 618.406 653.063 624.594L653.063 651.406C653.063 657.594 657.188 663.094 663.375 664.812ZM900.563 627.688C900.906 623.219 902.625 619.094 905.375 615.656 908.125 617.031 910.531 618.75 912.25 620.812 915.688 624.25 917.063 629.75 915 634.562 914.313 637.312 911.563 639.375 908.813 639.375 906.75 639.375 904.344 638.688 902.969 636.969 900.906 634.562 900.219 631.125 900.563 627.688ZM659.938 624.594C659.594 621.5 662 618.75 664.75 618.062L664.75 618.062 664.75 618.062 677.125 614.969 677.125 614.969 677.125 614.969C681.25 613.938 685.031 610.844 686.406 606.719 689.844 598.812 694.656 591.594 700.156 585.062L700.156 585.062C703.938 580.938 707.719 577.156 712.188 573.719 713.563 572.688 713.906 570.281 712.531 568.906 711.5 567.531 709.094 567.188 707.719 568.562L707.719 568.562C707.719 568.562 706.688 569.25 705.656 570.281L695.688 541.75C695.688 541.75 695.688 541.75 695.688 541.75 695.688 541.75 695.688 541.75 695.688 541.75L730.406 558.25 733.156 559.625 735.906 558.25C749.313 551.719 763.063 548.625 776.813 548.625 817.375 548.625 859.313 575.094 874.094 610.5L878.219 623.219C879.594 628.031 879.938 633.188 879.938 638.344 879.938 660 869.281 681.656 849.344 699.875 842.813 705.719 834.219 712.25 833.875 712.25 832.5 713.281 832.156 715.688 833.188 717.062 833.875 717.75 834.906 718.438 835.938 718.438 836.625 718.438 837.313 718.094 838 717.75 838 717.75 839.031 716.719 840.75 715.688L836.281 741.812C836.281 741.812 836.281 742.156 836.281 742.156L836.281 742.156 813.594 742.156C813.594 742.156 813.594 742.156 813.594 741.812L811.531 730.125 810.156 722.562 802.938 724.625C794.344 727.031 785.75 728.062 776.813 728.062 771.656 728.062 766.5 727.719 761.344 726.688 753.781 725.312 746.563 722.906 739.344 720.156 737.625 719.469 735.563 720.156 734.875 721.875 734.188 723.594 734.875 725.656 736.594 726.344 738.656 727.375 741.75 728.406 745.188 729.438L745.531 730.812 743.813 741.469C743.813 741.812 743.813 741.812 743.813 741.812L743.813 741.812 721.125 741.812C721.125 741.812 721.125 741.469 721.125 741.469L715.969 710.188 715.969 710.188 715.969 710.188C715.281 707.438 713.906 704.688 711.844 702.625L711.844 702.625 711.844 702.625C701.531 693.344 693.281 682 687.781 669.625L687.781 669.625 687.781 669.625C686.063 666.188 682.969 663.438 678.844 662.062L678.5 662.062 678.156 662.062 665.438 658.969C662.344 658.281 660.281 655.531 660.281 652.094L660.281 624.594Z" fill="#9C0D0F"/><path d="M754.813 568.219C761.344 566.5 768.219 565.812 775.094 565.812 788.844 566.156 802.594 568.906 815.313 574.75 817.031 575.438 819.094 574.75 819.781 573.031 820.469 571.312 819.781 569.25 818.063 568.562L818.063 568.562C804.656 562.375 789.875 559.281 775.094 559.281 767.531 559.281 759.969 560.312 752.75 562.031 751.031 562.375 749.656 564.438 750.344 566.156 751.031 567.875 752.75 569.25 754.469 568.562L754.469 568.562C754.469 568.219 754.469 568.219 754.813 568.219Z" fill="#9C0D0F"/></g></g></g><text fill="#9C0D0F" font-family="Source Sans Pro,Source Sans Pro_MSFontService,sans-serif" font-weight="400" font-size="110" transform="matrix(1 0 0 1 610.611 921)">Savings</text><path d="M406 546.168C406 493.056 449.056 450 502.168 450L1073.83 450C1126.94 450 1170 493.056 1170 546.168L1170 930.832C1170 983.944 1126.94 1027 1073.83 1027L502.168 1027C449.056 1027 406 983.944 406 930.832Z" stroke="#9C0D0F" stroke-width="10.3125" stroke-miterlimit="8" fill="none" fill-rule="evenodd"/></g></svg>