<svg width="497" height="497" xmlns="http://www.w3.org/2000/svg" xmlns:xlink="http://www.w3.org/1999/xlink" xml:space="preserve" overflow="hidden"><g transform="translate(-668 -1236)"><path d="M670.5 1320.34C670.5 1275.14 707.139 1238.5 752.336 1238.5L1080.66 1238.5C1125.86 1238.5 1162.5 1275.14 1162.5 1320.34L1162.5 1647.67C1162.5 1692.86 1125.86 1729.5 1080.66 1729.5L752.336 1729.5C707.139 1729.5 670.5 1692.86 670.5 1647.67Z" stroke="#9C0D0F" stroke-width="4.58333" stroke-miterlimit="8" fill="#9C0D0F" fill-rule="evenodd"/><path d="M799.301 1508.35 811.984 1511.44C814.04 1512.12 815.754 1513.5 816.782 1515.55 822.609 1528.92 831.521 1540.92 842.49 1550.86 843.518 1551.89 844.546 1553.26 844.889 1554.98L850.03 1586.17C850.716 1589.6 853.458 1592 856.886 1592L879.508 1592C882.936 1592 885.678 1589.6 886.363 1586.17L888.077 1575.2C890.819 1575.89 893.562 1576.57 896.304 1576.92L899.046 1577.26C903.502 1577.94 908.3 1578.29 912.756 1578.29 922.011 1578.29 931.608 1576.92 940.52 1574.52L942.577 1586.17C943.262 1589.6 946.004 1592 949.432 1592L972.054 1592C975.482 1592 978.224 1589.6 978.91 1586.17L984.051 1554.98C984.394 1553.26 985.079 1551.89 986.451 1550.86 987.479 1549.83 988.507 1548.81 989.536 1548.12L992.62 1545.38C1010.1 1527.89 1022.1 1505.95 1022.1 1481.61 1022.1 1475.79 1021.41 1470.3 1020.04 1464.82L1018.67 1460.36C1023.47 1458.65 1028.27 1457.62 1033.41 1457.62 1031.01 1461.73 1029.3 1466.19 1028.95 1470.64 1028.27 1476.13 1029.98 1481.27 1033.07 1485.39 1035.81 1488.47 1039.92 1490.18 1044.03 1489.84 1049.52 1489.5 1054.66 1486.07 1056.37 1480.59 1059.46 1473.39 1057.75 1465.16 1052.26 1459.33 1050.55 1457.62 1048.83 1455.9 1046.78 1454.88 1051.92 1453.16 1057.75 1452.48 1063.23 1453.16 1065.29 1453.16 1066.66 1451.79 1067 1450.08 1067 1448.02 1065.63 1446.65 1063.92 1446.3L1063.92 1446.3C1052.26 1445.62 1044.38 1447.68 1039.24 1451.45 1031.7 1449.73 1023.81 1450.42 1016.61 1453.5L1015.93 1451.45C999.818 1413.4 954.916 1385.63 912.413 1385.63 897.675 1385.63 882.936 1389.06 869.568 1395.23L827.408 1375.34C827.065 1375 826.38 1375 826.037 1375 823.98 1375 822.609 1376.37 822.609 1378.43 822.609 1378.77 822.609 1379.11 822.609 1379.46L836.32 1418.19C835.292 1419.22 834.263 1420.59 832.892 1421.97 832.892 1421.97 832.549 1422.31 832.549 1422.31 826.037 1429.85 820.553 1438.42 816.439 1447.68 815.754 1449.73 813.697 1451.45 811.641 1451.79L799.301 1454.88C793.131 1456.25 788.676 1462.07 789.018 1468.24L789.018 1494.98C789.018 1501.15 793.131 1506.64 799.301 1508.35ZM1035.81 1471.33C1036.15 1466.87 1037.87 1462.76 1040.61 1459.33 1043.35 1460.7 1045.75 1462.42 1047.46 1464.47 1050.89 1467.9 1052.26 1473.39 1050.2 1478.19 1049.52 1480.93 1046.78 1482.99 1044.03 1482.99 1041.98 1482.99 1039.58 1482.3 1038.21 1480.59 1036.15 1478.19 1035.47 1474.76 1035.81 1471.33ZM795.874 1468.24C795.531 1465.16 797.93 1462.42 800.672 1461.73L800.672 1461.73 800.672 1461.73 813.012 1458.65 813.012 1458.65 813.012 1458.65C817.125 1457.62 820.896 1454.53 822.267 1450.42 825.694 1442.53 830.493 1435.33 835.977 1428.82L835.977 1428.82C839.747 1424.71 843.518 1420.94 847.974 1417.51 849.345 1416.48 849.688 1414.08 848.317 1412.71 847.288 1411.34 844.889 1411 843.518 1412.37L843.518 1412.37C843.518 1412.37 842.49 1413.05 841.461 1414.08L831.521 1385.63C831.521 1385.63 831.521 1385.63 831.521 1385.63 831.521 1385.63 831.521 1385.63 831.521 1385.63L866.14 1402.08 868.883 1403.45 871.625 1402.08C884.992 1395.57 898.703 1392.48 912.413 1392.48 952.86 1392.48 994.677 1418.88 1009.42 1454.19L1013.53 1466.87C1014.9 1471.67 1015.24 1476.82 1015.24 1481.96 1015.24 1503.55 1004.62 1525.15 984.737 1543.32 978.224 1549.15 969.655 1555.66 969.312 1555.66 967.941 1556.69 967.599 1559.09 968.627 1560.46 969.312 1561.15 970.341 1561.83 971.369 1561.83 972.054 1561.83 972.74 1561.49 973.425 1561.15 973.425 1561.15 974.454 1560.12 976.168 1559.09L971.712 1585.14C971.712 1585.14 971.712 1585.49 971.712 1585.49L971.712 1585.49 949.089 1585.49C949.089 1585.49 949.089 1585.49 949.089 1585.14L947.033 1573.49 945.662 1565.95 938.464 1568C929.895 1570.4 921.325 1571.43 912.413 1571.43 907.272 1571.43 902.13 1571.09 896.989 1570.06 889.448 1568.69 882.25 1566.29 875.052 1563.55 873.338 1562.86 871.282 1563.55 870.596 1565.26 869.911 1566.97 870.596 1569.03 872.31 1569.72 874.367 1570.75 877.451 1571.77 880.879 1572.8L881.222 1574.17 879.508 1584.8C879.508 1585.14 879.508 1585.14 879.508 1585.14L879.508 1585.14 856.886 1585.14C856.886 1585.14 856.886 1584.8 856.886 1584.8L851.744 1553.61 851.744 1553.61 851.744 1553.61C851.059 1550.86 849.688 1548.12 847.631 1546.06L847.631 1546.06 847.631 1546.06C837.348 1536.81 829.122 1525.49 823.638 1513.15L823.638 1513.15 823.638 1513.15C821.924 1509.73 818.839 1506.98 814.726 1505.61L814.383 1505.61 814.04 1505.61 801.358 1502.53C798.273 1501.84 796.216 1499.1 796.216 1495.67L796.216 1468.24Z" fill="#FFFFFF" fill-rule="evenodd"/><path d="M890.657 1411.52C897.2 1409.88 904.086 1409.23 910.973 1409.23 924.746 1409.56 938.52 1412.18 951.26 1417.75 952.982 1418.4 955.048 1417.75 955.736 1416.11 956.425 1414.47 955.736 1412.5 954.015 1411.85L954.015 1411.85C940.586 1405.95 925.779 1403 910.973 1403 903.398 1403 895.822 1403.98 888.591 1405.62 886.87 1405.95 885.492 1407.92 886.181 1409.56 886.87 1411.19 888.591 1412.5 890.313 1411.85L890.313 1411.85C890.313 1411.52 890.313 1411.52 890.657 1411.52Z" fill="#FFFFFF" fill-rule="evenodd"/></g></svg>