<svg width="496" height="497" xmlns="http://www.w3.org/2000/svg" xmlns:xlink="http://www.w3.org/1999/xlink" xml:space="preserve" overflow="hidden"><g transform="translate(-668 -681)"><g><g><g><path d="M797.375 954.813 810.094 957.906C812.156 958.594 813.875 959.969 814.906 962.031 820.75 975.438 829.688 987.469 840.688 997.438 841.719 998.469 842.75 999.844 843.094 1001.56L848.25 1032.84C848.938 1036.28 851.688 1038.69 855.125 1038.69L877.813 1038.69C881.25 1038.69 884 1036.28 884.688 1032.84L886.406 1021.84C889.156 1022.53 891.906 1023.22 894.656 1023.56L897.406 1023.91C901.875 1024.59 906.688 1024.94 911.156 1024.94 920.438 1024.94 930.063 1023.56 939 1021.16L941.063 1032.84C941.75 1036.28 944.5 1038.69 947.938 1038.69L970.625 1038.69C974.063 1038.69 976.813 1036.28 977.5 1032.84L982.656 1001.56C983 999.844 983.688 998.469 985.063 997.438 986.094 996.406 987.125 995.375 988.156 994.688L991.25 991.938C1008.78 974.406 1020.81 952.406 1020.81 928 1020.81 922.156 1020.13 916.656 1018.75 911.156L1017.38 906.688C1022.19 904.969 1027 903.938 1032.16 903.938 1029.75 908.063 1028.03 912.531 1027.69 917 1027 922.5 1028.72 927.656 1031.81 931.781 1034.56 934.875 1038.69 936.594 1042.81 936.25 1048.31 935.906 1053.47 932.469 1055.19 926.969 1058.28 919.75 1056.56 911.5 1051.06 905.656 1049.34 903.938 1047.63 902.219 1045.56 901.188 1050.72 899.469 1056.56 898.781 1062.06 899.469 1064.13 899.469 1065.5 898.094 1065.84 896.375 1065.84 894.313 1064.47 892.938 1062.75 892.594L1062.75 892.594C1051.06 891.906 1043.16 893.969 1038 897.75 1030.44 896.031 1022.53 896.719 1015.31 899.813L1014.63 897.75C998.469 859.594 953.438 831.75 910.813 831.75 896.031 831.75 881.25 835.188 867.844 841.375L825.563 821.438C825.219 821.094 824.531 821.094 824.188 821.094 822.125 821.094 820.75 822.469 820.75 824.531 820.75 824.875 820.75 825.219 820.75 825.563L834.5 864.406C833.469 865.438 832.438 866.813 831.063 868.188 831.063 868.188 830.719 868.531 830.719 868.531 824.188 876.094 818.688 884.688 814.563 893.969 813.875 896.031 811.813 897.75 809.75 898.094L797.375 901.188C791.188 902.563 786.719 908.406 787.063 914.594L787.063 941.406C787.063 947.594 791.188 953.094 797.375 954.813ZM1034.56 917.688C1034.91 913.219 1036.63 909.094 1039.38 905.656 1042.13 907.031 1044.53 908.75 1046.25 910.813 1049.69 914.25 1051.06 919.75 1049 924.563 1048.31 927.313 1045.56 929.375 1042.81 929.375 1040.75 929.375 1038.34 928.688 1036.97 926.969 1034.91 924.563 1034.22 921.125 1034.56 917.688ZM793.938 914.594C793.594 911.5 796 908.75 798.75 908.063L798.75 908.063 798.75 908.063 811.125 904.969 811.125 904.969 811.125 904.969C815.25 903.938 819.031 900.844 820.406 896.719 823.844 888.813 828.656 881.594 834.156 875.063L834.156 875.063C837.938 870.938 841.719 867.156 846.188 863.719 847.563 862.688 847.906 860.281 846.531 858.906 845.5 857.531 843.094 857.188 841.719 858.563L841.719 858.563C841.719 858.563 840.688 859.25 839.656 860.281L829.688 831.75C829.688 831.75 829.688 831.75 829.688 831.75 829.688 831.75 829.688 831.75 829.688 831.75L864.406 848.25 867.156 849.625 869.906 848.25C883.313 841.719 897.063 838.625 910.813 838.625 951.375 838.625 993.313 865.094 1008.09 900.5L1012.22 913.219C1013.59 918.031 1013.94 923.188 1013.94 928.344 1013.94 950 1003.28 971.656 983.344 989.875 976.813 995.719 968.219 1002.25 967.875 1002.25 966.5 1003.28 966.156 1005.69 967.188 1007.06 967.875 1007.75 968.906 1008.44 969.938 1008.44 970.625 1008.44 971.313 1008.09 972 1007.75 972 1007.75 973.031 1006.72 974.75 1005.69L970.281 1031.81C970.281 1031.81 970.281 1032.16 970.281 1032.16L970.281 1032.16 947.594 1032.16C947.594 1032.16 947.594 1032.16 947.594 1031.81L945.531 1020.13 944.156 1012.56 936.938 1014.63C928.344 1017.03 919.75 1018.06 910.813 1018.06 905.656 1018.06 900.5 1017.72 895.344 1016.69 887.781 1015.31 880.563 1012.91 873.344 1010.16 871.625 1009.47 869.563 1010.16 868.875 1011.88 868.188 1013.59 868.875 1015.66 870.594 1016.34 872.656 1017.38 875.75 1018.41 879.188 1019.44L879.531 1020.81 877.813 1031.47C877.813 1031.81 877.813 1031.81 877.813 1031.81L877.813 1031.81 855.125 1031.81C855.125 1031.81 855.125 1031.47 855.125 1031.47L849.969 1000.19 849.969 1000.19 849.969 1000.19C849.281 997.438 847.906 994.688 845.844 992.625L845.844 992.625 845.844 992.625C835.531 983.344 827.281 972 821.781 959.625L821.781 959.625 821.781 959.625C820.063 956.188 816.969 953.438 812.844 952.063L812.5 952.063 812.156 952.063 799.438 948.969C796.344 948.281 794.281 945.531 794.281 942.094L794.281 914.594Z" fill="#9C0D0F"/><path d="M888.813 858.219C895.344 856.5 902.219 855.813 909.094 855.813 922.844 856.156 936.594 858.906 949.313 864.75 951.031 865.438 953.094 864.75 953.781 863.031 954.469 861.313 953.781 859.25 952.063 858.563L952.063 858.563C938.656 852.375 923.875 849.281 909.094 849.281 901.531 849.281 893.969 850.313 886.75 852.031 885.031 852.375 883.656 854.438 884.344 856.156 885.031 857.875 886.75 859.25 888.469 858.563L888.469 858.563C888.469 858.219 888.469 858.219 888.813 858.219Z" fill="#9C0D0F"/></g></g></g><path d="M670.5 765.335C670.5 720.139 707.139 683.5 752.335 683.5L1079.67 683.5C1124.86 683.5 1161.5 720.139 1161.5 765.335L1161.5 1093.67C1161.5 1138.86 1124.86 1175.5 1079.67 1175.5L752.335 1175.5C707.139 1175.5 670.5 1138.86 670.5 1093.67Z" stroke="#9C0D0F" stroke-width="4.58333" stroke-miterlimit="8" fill="none" fill-rule="evenodd"/></g></svg>